<svg width="800" height="800" viewBox="0 0 800 800" fill="none" xmlns="http://www.w3.org/2000/svg">
<g clip-path="url(#clip0_1539_40668)">
<path d="M400.003 799.995C620.915 799.995 800 620.91 800 399.997C800 179.085 620.915 0 400.003 0C179.09 0 0.00537109 179.085 0.00537109 399.997C0.00537109 620.91 179.09 799.995 400.003 799.995Z" fill="#DFE9FB"/>
<mask id="mask0_1539_40668" style="mask-type:luminance" maskUnits="userSpaceOnUse" x="0" y="0" width="800" height="800">
<path d="M400.003 799.995C620.915 799.995 800 620.91 800 399.997C800 179.085 620.915 0 400.003 0C179.09 0 0.00537109 179.085 0.00537109 399.997C0.00537109 620.91 179.09 799.995 400.003 799.995Z" fill="white"/>
</mask>
<g mask="url(#mask0_1539_40668)">
<path d="M591.563 646.19C565.779 597.38 400.003 566.75 400.003 566.75C400.003 566.75 234.226 597.38 208.442 646.19C189.383 713.927 173.441 799.992 173.441 799.992H400.003H626.564C626.564 799.992 615.794 707.71 591.563 646.19Z" fill="#F1C9A5"/>
<path d="M400.002 566.75C400.002 566.75 565.779 597.38 591.563 646.19C615.8 707.71 626.564 799.992 626.564 799.992H400.002V566.75Z" fill="#E4B692"/>
<path d="M445.132 467.516H354.873V618.571H445.132V467.516Z" fill="#F1C9A5"/>
<path d="M445.132 467.516H400.002V618.571H445.132V467.516Z" fill="#E4B692"/>
<path opacity="0.1" d="M354.873 537.512C362.99 560.815 395.748 574.171 419.807 574.171C428.511 574.171 436.976 572.712 445.132 570.043V467.516H354.873V537.512Z" fill="#DDAC8C"/>
<path d="M516.046 372.203C516.046 277.854 464.092 224.203 400.003 224.203C335.913 224.203 283.959 277.854 283.959 372.203C283.959 499.111 335.913 543.047 400.003 543.047C464.086 543.047 516.046 493.822 516.046 372.203Z" fill="#F1C9A5"/>
<path d="M498.38 447.627C477.343 445.428 463.141 422.761 466.706 397.032C470.226 371.282 490.146 352.162 511.195 354.35C532.221 356.539 546.4 379.195 542.852 404.945C539.321 430.702 519.417 449.805 498.38 447.627Z" fill="#E4B692"/>
<path d="M257.976 404.953C254.423 379.203 268.608 356.546 289.623 354.358C310.676 352.17 330.603 371.284 334.134 397.04C337.687 422.769 323.469 445.436 302.448 447.635C281.406 449.807 261.501 430.704 257.976 404.953Z" fill="#F1C9A5"/>
<path d="M516.046 372.203C516.046 277.854 464.092 224.203 400.002 224.203V543.047C464.086 543.047 516.046 493.822 516.046 372.203Z" fill="#E4B692"/>
<path d="M504.387 451.284C498.142 468.834 487.582 489.932 468.502 489.932C444.652 489.932 427.593 470.547 400.235 470.547C400.157 470.547 400.086 470.558 400.008 470.558C399.925 470.558 399.853 470.547 399.771 470.547C372.417 470.547 355.364 489.932 331.504 489.932C312.423 489.932 301.868 468.834 295.624 451.284L290.22 417.477V457.932C290.22 457.932 299.288 505.576 316.689 517.086C330.863 529.68 377.131 551.253 399.759 551.253C399.837 551.253 399.92 551.242 400.003 551.242C400.08 551.242 400.157 551.253 400.229 551.253H400.24C422.874 551.253 469.143 529.685 483.311 517.086C500.712 505.576 509.78 457.932 509.78 457.932V417.477L504.387 451.284Z" fill="#705726"/>
<path d="M340.453 242.215C340.453 242.215 361.077 334.072 476 380.539C465.191 360.005 463.229 335.149 463.229 335.149C463.229 335.149 481.891 356.765 512.335 374.057C529.036 337.319 548.681 282.2 504.482 251.944C460.284 221.681 355.186 167.639 340.453 242.215Z" fill="#705726"/>
<path d="M299.777 390C299.777 390 309.505 271.458 350 245.234C315.457 228.798 262.816 278.831 268.412 309.369C274.015 339.914 299.777 390 299.777 390Z" fill="#705726"/>
<path d="M591.563 646.199C576.5 617.696 513.747 595.41 464.108 581.789C462.163 615.552 434.258 642.353 400.003 642.353C365.753 642.353 337.842 615.552 335.902 581.789C286.263 595.41 223.506 617.696 208.442 646.199C189.383 713.935 173.441 800.001 173.441 800.001H400.003H626.564C626.564 800.001 615.794 707.719 591.563 646.199Z" fill="#3B71CA"/>
<path opacity="0.2" d="M332.183 598.367C334.239 632.13 363.764 658.931 399.997 658.931C436.236 658.931 465.755 632.13 467.811 598.367C513.305 610.165 569.155 628.477 593.646 651.692C592.961 649.835 592.265 648 591.552 646.199C576.488 617.696 513.736 595.41 464.097 581.789C462.152 615.552 434.246 642.353 399.991 642.353C365.742 642.353 337.83 615.552 335.891 581.789C286.252 595.41 223.494 617.696 208.431 646.199C207.983 647.796 207.535 649.415 207.088 651.029C231.954 628.135 287.125 610.048 332.183 598.367Z" fill="#1D51A6"/>
<path d="M317.02 587.227C323.308 627.455 358.011 658.267 400.002 658.267C441.994 658.267 476.696 627.455 482.985 587.227C476.569 585.281 470.236 583.469 464.108 581.789C462.163 615.552 434.257 642.353 400.002 642.353C365.753 642.353 337.842 615.552 335.902 581.789C329.768 583.469 323.436 585.281 317.02 587.227Z" fill="#144698"/>
<path d="M418.885 488.66C418.885 488.66 416.122 500.961 400.003 500.961C385.265 500.961 381.121 488.66 381.121 488.66H418.885Z" fill="white"/>
</g>
<path d="M504.071 387.59L504.355 388.115H504.952H513.703C516.068 388.115 517.994 390.043 518 392.423C517.999 394.804 516.074 396.73 513.71 396.73H507.95H506.858L506.954 397.819C508.272 412.689 504.368 431.707 489.754 441.986C481.64 447.69 470.269 450.997 458.56 450.997C448.647 450.997 439.744 448.67 432.792 444.321L432.262 445.169L432.792 444.321C420.477 436.619 415.637 426.923 411.397 412.472L411.397 412.472C410.165 408.276 409.735 404.124 410.051 400.209L410.098 399.623L409.608 399.297C407.992 398.22 405.037 396.761 400.849 396.809C400.845 396.808 400.829 396.807 400.788 396.801C400.78 396.8 400.76 396.798 400.739 396.795C400.72 396.792 400.7 396.789 400.685 396.787C400.644 396.782 400.591 396.775 400.533 396.771L400.453 396.765L400.374 396.771C400.275 396.779 400.175 396.795 400.132 396.8C400.105 396.804 400.088 396.806 400.075 396.808C400.072 396.808 400.069 396.808 400.067 396.808C393.835 396.743 390.38 399.935 389.925 400.379L389.881 400.422L389.842 400.47C389.739 400.599 389.619 400.705 389.423 400.879C389.402 400.897 389.38 400.917 389.357 400.937L389.007 401.248L389.022 401.716C389.131 405.188 388.686 408.815 387.61 412.475L387.61 412.476C383.371 426.927 378.526 436.623 366.218 444.325C359.266 448.674 350.36 451 340.447 451C328.738 451 317.368 447.694 309.254 441.99C294.639 431.711 290.735 412.693 292.056 397.822L292.153 396.734H291.06H286.29C283.925 396.734 282 394.807 282 392.424C282 390.043 283.925 388.115 286.291 388.112H294.052H294.649L294.932 387.587C298.856 380.312 306.744 375.304 318.836 372.846L318.658 371.972L318.836 372.846C324.863 371.621 331.069 371 337.279 371C347.597 371 357.721 372.678 367.374 375.982L367.374 375.982C374.708 378.492 381.853 381.905 386.126 390.083C386.181 390.187 386.232 390.302 386.293 390.444C386.303 390.466 386.312 390.489 386.323 390.513C386.374 390.633 386.435 390.774 386.5 390.912L386.961 391.884L387.897 391.353C390.742 389.739 394.693 388.317 399.626 388.234L399.723 388.233L399.819 388.212C400.109 388.15 400.402 388.115 400.697 388.115H400.698H400.698H400.699H400.7H400.701H400.702H400.702H400.703H400.704H400.705H400.705H400.706H400.707H400.708H400.708H400.709H400.71H400.711H400.711H400.712H400.713H400.714H400.714H400.715H400.716H400.717H400.717H400.718H400.719H400.72H400.72H400.721H400.722H400.723H400.724H400.724H400.725H400.726H400.727H400.727H400.728H400.729H400.73H400.73H400.731H400.732H400.733H400.733H400.734H400.735H400.736H400.736H400.737H400.738H400.739H400.739H400.74H400.741H400.742H400.743H400.743H400.744H400.745H400.746H400.746H400.747H400.748H400.749H400.749H400.75H400.751H400.752H400.752H400.753H400.754H400.755H400.755H400.756H400.757H400.758H400.759H400.759H400.76H400.761H400.762H400.762H400.763H400.764H400.765H400.765H400.766H400.767H400.768H400.768H400.769H400.77H400.771H400.771H400.772H400.773H400.774H400.775H400.775H400.776H400.777H400.778H400.778H400.779H400.78H400.781H400.781H400.782H400.783H400.784H400.784H400.785H400.786H400.787H400.788H400.788H400.789H400.79H400.791H400.791H400.792H400.793H400.794H400.794H400.795H400.796H400.797H400.797H400.798H400.799H400.8H400.801H400.801H400.802H400.803H400.804H400.804H400.805H400.806H400.807H400.807H400.808H400.809H400.81H400.81H400.811H400.812H400.813H400.814H400.814H400.815H400.816H400.817H400.817H400.818H400.819H400.82H400.82H400.821H400.822H400.823H400.823H400.824H400.825H400.826H400.827H400.827H400.828H400.829H400.83H400.83H400.831H400.832H400.833H400.833H400.834H400.835H400.836H400.837H400.837H400.838H400.839H400.84H400.84H400.841H400.842H400.843H400.843H400.844H400.845H400.846H400.846H400.847H400.848H400.849H400.85H400.85H400.851H400.852H400.853H400.853H400.854H400.855H400.856H400.856H400.857H400.858H400.859H400.859H400.86H400.861H400.862H400.863H400.863H400.864H400.865H400.866H400.866H400.867H400.868H400.869H400.869H400.87H400.871H400.872H400.873H400.873H400.874H400.875H400.876H400.876H400.877H400.878H400.879H400.879H400.88H400.881H400.882H400.883H400.883H400.884H400.885H400.886H400.886H400.887H400.888H400.889H400.889H400.89H400.891H400.892H400.892H400.893H400.894H400.895H400.896H400.896H400.897H400.898H400.899H400.899H400.9H400.901H400.902H400.902H400.903H400.904H400.905H400.906H400.906H400.907H400.908H400.909H400.909H400.91H400.911H400.912H400.912H400.913H400.914H400.915H400.915H400.916H400.917H400.918H400.919H400.919H400.92H400.921H400.922H400.922H400.923H400.924H400.925H400.925H400.926H400.927H400.928H400.929H400.929H400.93H400.931H400.932H400.932H400.933H400.934H400.935H400.935H400.936H400.937H400.938H400.938H400.939H400.94H400.941H400.942H400.942H400.943H400.944H400.945H400.945H400.946H400.947H400.948H400.948H400.949H400.95H400.951H400.952H400.952H400.953H400.954H400.955H400.955H400.956H400.957H400.958H400.958H400.959H400.96H400.961H400.961H400.962H400.963H400.964H400.965H400.965H400.966H400.967H400.968H400.968H400.969H400.97H400.971H400.971H400.972H400.973H400.974H400.974H400.975H400.976H400.977H400.978H400.978H400.979H400.98H400.981H400.981H400.982H400.983H400.984H400.984H400.985H400.986H400.987H400.987H400.988H400.989H400.99H400.991H400.991H400.992H400.993H400.994H400.994H400.995H400.996H400.997H400.997H400.998H400.999H401H401H401.001H401.002H401.003H401.004H401.004H401.005H401.006H401.007H401.007H401.008H401.009H401.01H401.01H401.011H401.012H401.013H401.013H401.014H401.015H401.016H401.017H401.017H401.018H401.019H401.02H401.02H401.021H401.022H401.023H401.023H401.024H401.025H401.026H401.026H401.027H401.028H401.029H401.029H401.03H401.031H401.032H401.033H401.033H401.034H401.035H401.036H401.036H401.037H401.038H401.039H401.039H401.04H401.041H401.042H401.042H401.043H401.044H401.045H401.045H401.046H401.047H401.048H401.049H401.049H401.05H401.051H401.052H401.052H401.053H401.054H401.055H401.055H401.056H401.057H401.058H401.058H401.059H401.06H401.061H401.061H401.062H401.063H401.064H401.064H401.065H401.066H401.067H401.067H401.068H401.069H401.07H401.071H401.071H401.072H401.073H401.074H401.074H401.075H401.076H401.077H401.077H401.078H401.079H401.08H401.08H401.081H401.082H401.083H401.083H401.084H401.085H401.086H401.086H401.087H401.088C405.327 388.115 408.82 389.179 411.566 390.509L412.438 390.932L412.888 390.073C417.161 381.905 424.3 378.496 431.63 375.986L431.306 375.04L431.63 375.986C441.279 372.681 451.407 371.003 461.725 371.003C467.935 371.003 474.141 371.625 480.168 372.85L480.367 371.87L480.168 372.85C492.26 375.308 500.148 380.316 504.071 387.59ZM379.384 410.043L379.384 410.043C381.099 404.195 380.843 398.515 378.536 394.088L378.535 394.087C375.757 388.766 370.99 386.319 364.611 384.135L364.611 384.135C355.85 381.138 346.656 379.615 337.282 379.615C331.64 379.615 326.008 380.178 320.539 381.29L320.539 381.29C312.52 382.922 307.678 385.504 304.765 388.517C301.833 391.552 300.964 394.913 300.66 397.846L300.66 397.846C300.05 403.753 300.433 410.892 302.452 417.61C304.472 424.328 308.149 430.691 314.176 434.928C320.854 439.625 330.678 442.385 340.454 442.385C348.56 442.385 356.109 440.502 361.687 437.012C366.199 434.189 369.569 431.109 372.344 426.864C375.106 422.641 377.25 417.311 379.384 410.043ZM434.396 384.136L434.395 384.136C428.02 386.322 423.251 388.769 420.472 394.087C418.157 398.515 417.905 404.196 419.62 410.04C421.752 417.31 423.896 422.639 426.659 426.862C429.435 431.107 432.807 434.188 437.321 437.012C442.898 440.502 450.447 442.385 458.557 442.385C468.336 442.385 478.153 439.625 484.832 434.928C490.858 430.691 494.536 424.328 496.555 417.61C498.575 410.892 498.959 403.754 498.351 397.846L498.351 397.846C498.047 394.913 497.177 391.552 494.244 388.517C491.33 385.503 486.487 382.922 478.469 381.29L478.468 381.29C472.996 380.178 467.364 379.615 461.725 379.615C452.352 379.615 443.158 381.134 434.396 384.136Z" fill="#333333" stroke="#E4B692" stroke-width="2"/>
<mask id="mask1_1539_40668" style="mask-type:alpha" maskUnits="userSpaceOnUse" x="274" y="355" width="126" height="137">
<rect x="274" y="355" width="126" height="137" fill="#D9D9D9"/>
</mask>
<g mask="url(#mask1_1539_40668)">
<path d="M504.071 387.59L504.355 388.115H504.952H513.703C516.068 388.115 517.994 390.043 518 392.423C517.999 394.804 516.074 396.73 513.71 396.73H507.95H506.858L506.954 397.819C508.272 412.689 504.368 431.707 489.754 441.986C481.64 447.69 470.269 450.997 458.56 450.997C448.647 450.997 439.744 448.67 432.792 444.321L432.262 445.169L432.792 444.321C420.477 436.619 415.637 426.923 411.397 412.472L411.397 412.472C410.165 408.276 409.735 404.124 410.051 400.209L410.098 399.623L409.608 399.297C407.992 398.22 405.037 396.761 400.849 396.809C400.845 396.808 400.829 396.807 400.788 396.801C400.78 396.8 400.76 396.798 400.739 396.795C400.72 396.792 400.7 396.789 400.685 396.787C400.644 396.782 400.591 396.775 400.533 396.771L400.453 396.765L400.374 396.771C400.275 396.779 400.175 396.795 400.132 396.8C400.105 396.804 400.088 396.806 400.075 396.808C400.072 396.808 400.069 396.808 400.067 396.808C393.835 396.743 390.38 399.935 389.925 400.379L389.881 400.422L389.842 400.47C389.739 400.599 389.619 400.705 389.423 400.879C389.402 400.897 389.38 400.917 389.357 400.937L389.007 401.248L389.022 401.716C389.131 405.188 388.686 408.815 387.61 412.475L387.61 412.476C383.371 426.927 378.526 436.623 366.218 444.325C359.266 448.674 350.36 451 340.447 451C328.738 451 317.368 447.694 309.254 441.99C294.639 431.711 290.735 412.693 292.056 397.822L292.153 396.734H291.06H286.29C283.925 396.734 282 394.807 282 392.424C282 390.043 283.925 388.115 286.291 388.112H294.052H294.649L294.932 387.587C298.856 380.312 306.744 375.304 318.836 372.846L318.658 371.972L318.836 372.846C324.863 371.621 331.069 371 337.279 371C347.597 371 357.721 372.678 367.374 375.982L367.374 375.982C374.708 378.492 381.853 381.905 386.126 390.083C386.181 390.187 386.232 390.302 386.293 390.444C386.303 390.466 386.312 390.489 386.323 390.513C386.374 390.633 386.435 390.774 386.5 390.912L386.961 391.884L387.897 391.353C390.742 389.739 394.693 388.317 399.626 388.234L399.723 388.233L399.819 388.212C400.109 388.15 400.402 388.115 400.697 388.115H400.698H400.698H400.699H400.7H400.701H400.702H400.702H400.703H400.704H400.705H400.705H400.706H400.707H400.708H400.708H400.709H400.71H400.711H400.711H400.712H400.713H400.714H400.714H400.715H400.716H400.717H400.717H400.718H400.719H400.72H400.72H400.721H400.722H400.723H400.724H400.724H400.725H400.726H400.727H400.727H400.728H400.729H400.73H400.73H400.731H400.732H400.733H400.733H400.734H400.735H400.736H400.736H400.737H400.738H400.739H400.739H400.74H400.741H400.742H400.743H400.743H400.744H400.745H400.746H400.746H400.747H400.748H400.749H400.749H400.75H400.751H400.752H400.752H400.753H400.754H400.755H400.755H400.756H400.757H400.758H400.759H400.759H400.76H400.761H400.762H400.762H400.763H400.764H400.765H400.765H400.766H400.767H400.768H400.768H400.769H400.77H400.771H400.771H400.772H400.773H400.774H400.775H400.775H400.776H400.777H400.778H400.778H400.779H400.78H400.781H400.781H400.782H400.783H400.784H400.784H400.785H400.786H400.787H400.788H400.788H400.789H400.79H400.791H400.791H400.792H400.793H400.794H400.794H400.795H400.796H400.797H400.797H400.798H400.799H400.8H400.801H400.801H400.802H400.803H400.804H400.804H400.805H400.806H400.807H400.807H400.808H400.809H400.81H400.81H400.811H400.812H400.813H400.814H400.814H400.815H400.816H400.817H400.817H400.818H400.819H400.82H400.82H400.821H400.822H400.823H400.823H400.824H400.825H400.826H400.827H400.827H400.828H400.829H400.83H400.83H400.831H400.832H400.833H400.833H400.834H400.835H400.836H400.837H400.837H400.838H400.839H400.84H400.84H400.841H400.842H400.843H400.843H400.844H400.845H400.846H400.846H400.847H400.848H400.849H400.85H400.85H400.851H400.852H400.853H400.853H400.854H400.855H400.856H400.856H400.857H400.858H400.859H400.859H400.86H400.861H400.862H400.863H400.863H400.864H400.865H400.866H400.866H400.867H400.868H400.869H400.869H400.87H400.871H400.872H400.873H400.873H400.874H400.875H400.876H400.876H400.877H400.878H400.879H400.879H400.88H400.881H400.882H400.883H400.883H400.884H400.885H400.886H400.886H400.887H400.888H400.889H400.889H400.89H400.891H400.892H400.892H400.893H400.894H400.895H400.896H400.896H400.897H400.898H400.899H400.899H400.9H400.901H400.902H400.902H400.903H400.904H400.905H400.906H400.906H400.907H400.908H400.909H400.909H400.91H400.911H400.912H400.912H400.913H400.914H400.915H400.915H400.916H400.917H400.918H400.919H400.919H400.92H400.921H400.922H400.922H400.923H400.924H400.925H400.925H400.926H400.927H400.928H400.929H400.929H400.93H400.931H400.932H400.932H400.933H400.934H400.935H400.935H400.936H400.937H400.938H400.938H400.939H400.94H400.941H400.942H400.942H400.943H400.944H400.945H400.945H400.946H400.947H400.948H400.948H400.949H400.95H400.951H400.952H400.952H400.953H400.954H400.955H400.955H400.956H400.957H400.958H400.958H400.959H400.96H400.961H400.961H400.962H400.963H400.964H400.965H400.965H400.966H400.967H400.968H400.968H400.969H400.97H400.971H400.971H400.972H400.973H400.974H400.974H400.975H400.976H400.977H400.978H400.978H400.979H400.98H400.981H400.981H400.982H400.983H400.984H400.984H400.985H400.986H400.987H400.987H400.988H400.989H400.99H400.991H400.991H400.992H400.993H400.994H400.994H400.995H400.996H400.997H400.997H400.998H400.999H401H401H401.001H401.002H401.003H401.004H401.004H401.005H401.006H401.007H401.007H401.008H401.009H401.01H401.01H401.011H401.012H401.013H401.013H401.014H401.015H401.016H401.017H401.017H401.018H401.019H401.02H401.02H401.021H401.022H401.023H401.023H401.024H401.025H401.026H401.026H401.027H401.028H401.029H401.029H401.03H401.031H401.032H401.033H401.033H401.034H401.035H401.036H401.036H401.037H401.038H401.039H401.039H401.04H401.041H401.042H401.042H401.043H401.044H401.045H401.045H401.046H401.047H401.048H401.049H401.049H401.05H401.051H401.052H401.052H401.053H401.054H401.055H401.055H401.056H401.057H401.058H401.058H401.059H401.06H401.061H401.061H401.062H401.063H401.064H401.064H401.065H401.066H401.067H401.067H401.068H401.069H401.07H401.071H401.071H401.072H401.073H401.074H401.074H401.075H401.076H401.077H401.077H401.078H401.079H401.08H401.08H401.081H401.082H401.083H401.083H401.084H401.085H401.086H401.086H401.087H401.088C405.327 388.115 408.82 389.179 411.566 390.509L412.438 390.932L412.888 390.073C417.161 381.905 424.3 378.496 431.63 375.986L431.306 375.04L431.63 375.986C441.279 372.681 451.407 371.003 461.725 371.003C467.935 371.003 474.141 371.625 480.168 372.85L480.367 371.87L480.168 372.85C492.26 375.308 500.148 380.316 504.071 387.59ZM379.384 410.043L379.384 410.043C381.099 404.195 380.843 398.515 378.536 394.088L378.535 394.087C375.757 388.766 370.99 386.319 364.611 384.135L364.611 384.135C355.85 381.138 346.656 379.615 337.282 379.615C331.64 379.615 326.008 380.178 320.539 381.29L320.539 381.29C312.52 382.922 307.678 385.504 304.765 388.517C301.833 391.552 300.964 394.913 300.66 397.846L300.66 397.846C300.05 403.753 300.433 410.892 302.452 417.61C304.472 424.328 308.149 430.691 314.176 434.928C320.854 439.625 330.678 442.385 340.454 442.385C348.56 442.385 356.109 440.502 361.687 437.012C366.199 434.189 369.569 431.109 372.344 426.864C375.106 422.641 377.25 417.311 379.384 410.043ZM434.396 384.136L434.395 384.136C428.02 386.322 423.251 388.769 420.472 394.087C418.157 398.515 417.905 404.196 419.62 410.04C421.752 417.31 423.896 422.639 426.659 426.862C429.435 431.107 432.807 434.188 437.321 437.012C442.898 440.502 450.447 442.385 458.557 442.385C468.336 442.385 478.153 439.625 484.832 434.928C490.858 430.691 494.536 424.328 496.555 417.61C498.575 410.892 498.959 403.754 498.351 397.846L498.351 397.846C498.047 394.913 497.177 391.552 494.244 388.517C491.33 385.503 486.487 382.922 478.469 381.29L478.468 381.29C472.996 380.178 467.364 379.615 461.725 379.615C452.352 379.615 443.158 381.134 434.396 384.136Z" fill="#333333" stroke="#F1C9A5" stroke-width="2"/>
</g>
</g>
<defs>
<clipPath id="clip0_1539_40668">
<rect width="800" height="800" fill="white"/>
</clipPath>
</defs>
</svg>
